<svg width="2595" height="912" viewBox="0 0 2595 912" fill="none" xmlns="http://www.w3.org/2000/svg">
<g clip-path="url(#clip0)">
<rect width="2595" height="912" fill="white"/>
<path d="M2648 -89H-3147V1290H2648V-89Z" fill="url(#paint0_linear)"/>
<path d="M570.985 871.585C597.89 871.585 619.78 847.783 619.78 818.527V778.808C619.78 764.238 630.643 752.426 644.043 752.426H765.893H776.924C793.099 340.863 376.076 318.007 376.076 318.007L376.076 434.666H388.342C442.004 434.666 485.662 482.138 485.662 540.489C485.662 598.839 442.004 646.312 388.342 646.312H376.076V752.426H497.927C511.327 752.426 522.19 764.238 522.19 778.808V818.527C522.19 847.783 544.08 871.585 570.985 871.585Z" fill="#615B9B"/>
<path d="M449.165 538.448C449.138 509.253 427.18 485.525 400.218 485.556L363.613 485.596C350.186 485.611 339.289 473.836 339.275 459.297L339.15 327.078L350.163 318.611C-29.1437 301.483 -60.8033 750.51 -60.8033 750.51L46.7077 750.39L46.6951 737.081C46.64 678.853 90.3447 631.431 144.12 631.371C197.894 631.311 241.689 678.635 241.744 736.863L241.757 750.172L339.15 750.172L339.425 617.844C339.411 603.305 350.286 591.505 363.713 591.49L400.318 591.449C427.28 591.419 449.193 567.643 449.165 538.448Z" fill="#615B9B"/>
<path d="M283.716 1004.01C283.716 1021.75 305.136 1014.8 332.097 1014.49L368.699 1014.5C382.126 1014.35 371.688 1014.5 423.341 1014.52L515.834 1014.54L600.813 1014.54L649.254 1014.54C786.887 862.799 791.748 781.951 791.748 781.951L684.243 783.186L649.254 786.614C649.835 846.138 641.681 905.244 587.909 905.861C534.138 906.478 489.918 858.554 489.338 799.03L489.205 785.425L391.417 786.548L392.735 921.709C392.88 936.572 382.112 948.747 368.685 948.901L332.083 949.321C305.122 949.631 283.425 974.163 283.716 1004.01Z" fill="#615B9B"/>
<path d="M147.59 682.624C120.69 683.202 99.2391 707.47 99.773 736.72L100.498 776.431C100.764 790.998 90.1181 803.042 76.7214 803.33L-46.0225 803.33L-67.0765 803.329C-67.0774 836.43 -67.0785 1011.82 -67.0785 1011.82L51.9686 1011.82L97.3228 1011.82L161.291 1011.82C238.938 1011.82 188.632 1011.82 238.938 1011.82C237.874 953.483 280.657 905.082 334.308 903.929L352.562 903.93L352.562 794.158L222.808 800.19C209.411 800.478 198.335 788.902 198.069 774.335L197.344 734.623C196.81 705.373 174.491 682.046 147.59 682.624Z" fill="#615B9B"/>
</g>
<defs>
<linearGradient id="paint0_linear" x1="2648" y1="724.501" x2="-8587.56" y2="612.605" gradientUnits="userSpaceOnUse">
<stop stop-color="#31246C"/>
<stop offset="0.958333" stop-color="#32256D" stop-opacity="0"/>
<stop offset="0.9998" stop-color="#32256D" stop-opacity="0.146739"/>
<stop offset="0.9999" stop-color="#32256D" stop-opacity="0.246671"/>
<stop offset="1" stop-color="#32256D" stop-opacity="0.217844"/>
</linearGradient>
<clipPath id="clip0">
<rect width="2595" height="912" fill="white"/>
</clipPath>
</defs>
</svg>
