<svg width="229" height="94" viewBox="0 0 229 94" fill="none" xmlns="http://www.w3.org/2000/svg">
<path d="M18.672 44.576C25.728 44.576 29.76 40.688 32.064 36.704L26.208 33.872C24.864 36.512 21.984 38.528 18.672 38.528C12.864 38.528 8.64 34.064 8.64 28.016C8.64 21.968 12.864 17.504 18.672 17.504C21.984 17.504 24.864 19.568 26.208 22.16L32.064 19.28C29.808 15.296 25.728 11.456 18.672 11.456C9.072 11.456 1.632 18.176 1.632 28.016C1.632 37.856 9.072 44.576 18.672 44.576ZM51.2891 44.576C60.9851 44.576 68.0411 37.664 68.0411 28.016C68.0411 18.368 60.9851 11.456 51.2891 11.456C41.6411 11.456 34.5851 18.368 34.5851 28.016C34.5851 37.664 41.6411 44.576 51.2891 44.576ZM51.2891 38.528C45.3851 38.528 41.5931 33.968 41.5931 28.016C41.5931 22.016 45.3851 17.504 51.2891 17.504C57.1931 17.504 61.0331 22.016 61.0331 28.016C61.0331 33.968 57.1931 38.528 51.2891 38.528ZM101.48 44V11.984H94.6643V32.096L79.8323 11.984H72.8242V44H79.6403V23.12L94.9043 44H101.48ZM136.449 44V11.984H129.633V32.096L114.801 11.984H107.793V44H114.609V23.12L129.873 44H136.449ZM165.418 44V38H149.578V30.752H165.082V24.752H149.578V17.984H165.418V11.984H142.762V44H165.418ZM186.25 44.576C193.306 44.576 197.338 40.688 199.642 36.704L193.786 33.872C192.442 36.512 189.562 38.528 186.25 38.528C180.442 38.528 176.218 34.064 176.218 28.016C176.218 21.968 180.442 17.504 186.25 17.504C189.562 17.504 192.442 19.568 193.786 22.16L199.642 19.28C197.386 15.296 193.306 11.456 186.25 11.456C176.65 11.456 169.21 18.176 169.21 28.016C169.21 37.856 176.65 44.576 186.25 44.576ZM217.955 44V17.984H227.267V11.984H201.731V17.984H211.091V44H217.955Z" fill="#16103F"/>
<path d="M5.796 86H2.808V61.988H12.456C14.784 61.988 16.62 62.684 17.964 64.076C19.308 65.468 19.98 67.184 19.98 69.224C19.98 71.264 19.296 72.98 17.928 74.372C16.584 75.764 14.76 76.46 12.456 76.46H5.796V86ZM12.096 73.796C13.512 73.796 14.664 73.376 15.552 72.536C16.44 71.672 16.884 70.568 16.884 69.224C16.884 67.88 16.44 66.788 15.552 65.948C14.664 65.084 13.512 64.652 12.096 64.652H5.796V73.796H12.096ZM31.2559 86.432C28.6399 86.432 26.5039 85.592 24.8479 83.912C23.1919 82.208 22.3639 80 22.3639 77.288C22.3639 74.744 23.1799 72.596 24.8119 70.844C26.4439 69.068 28.4839 68.18 30.9319 68.18C33.4999 68.18 35.5279 69.068 37.0159 70.844C38.5279 72.596 39.2839 74.816 39.2839 77.504V78.188H25.2439C25.3639 79.892 25.9759 81.32 27.0799 82.472C28.2079 83.624 29.6719 84.2 31.4719 84.2C33.6319 84.2 35.4319 83.456 36.8719 81.968L38.1679 83.732C36.3199 85.532 34.0159 86.432 31.2559 86.432ZM36.6199 76.172C36.5959 74.708 36.0919 73.388 35.1079 72.212C34.1239 71.012 32.7199 70.412 30.8959 70.412C29.1679 70.412 27.7999 71 26.7919 72.176C25.8079 73.352 25.2799 74.684 25.2079 76.172H36.6199ZM46.357 86H43.657V68.612H46.357V71.384C48.013 69.272 49.945 68.216 52.153 68.216V70.988C51.721 70.94 51.373 70.916 51.109 70.916C50.269 70.916 49.369 71.204 48.409 71.78C47.449 72.332 46.765 72.968 46.357 73.688V86ZM61.0838 86.432C58.1558 86.432 55.8158 85.52 54.0638 83.696L55.4318 81.752C56.0318 82.448 56.8478 83.036 57.8798 83.516C58.9358 83.996 60.0278 84.236 61.1558 84.236C62.4518 84.236 63.4598 83.96 64.1798 83.408C64.9238 82.856 65.2958 82.136 65.2958 81.248C65.2958 80.48 64.9238 79.88 64.1798 79.448C63.4358 78.992 62.5358 78.656 61.4798 78.44C60.4238 78.2 59.3678 77.936 58.3118 77.648C57.2798 77.336 56.3918 76.82 55.6478 76.1C54.9038 75.356 54.5318 74.384 54.5318 73.184C54.5318 71.768 55.1078 70.58 56.2598 69.62C57.4118 68.66 58.9838 68.18 60.9758 68.18C63.6398 68.18 65.7878 69.02 67.4198 70.7L66.1598 72.572C64.9358 71.108 63.2078 70.376 60.9758 70.376C59.7998 70.376 58.8638 70.64 58.1678 71.168C57.4718 71.672 57.1238 72.32 57.1238 73.112C57.1238 73.688 57.3878 74.168 57.9158 74.552C58.4438 74.936 59.1038 75.212 59.8958 75.38C60.7118 75.548 61.5758 75.764 62.4878 76.028C63.4238 76.292 64.2878 76.592 65.0798 76.928C65.8958 77.24 66.5678 77.768 67.0958 78.512C67.6238 79.232 67.8878 80.12 67.8878 81.176C67.8878 82.712 67.2878 83.972 66.0878 84.956C64.9118 85.94 63.2438 86.432 61.0838 86.432ZM86.0982 83.804C84.5382 85.556 82.4622 86.432 79.8702 86.432C77.2782 86.432 75.1902 85.556 73.6062 83.804C72.0462 82.052 71.2662 79.88 71.2662 77.288C71.2662 74.696 72.0462 72.536 73.6062 70.808C75.1902 69.056 77.2782 68.18 79.8702 68.18C82.4622 68.18 84.5382 69.056 86.0982 70.808C87.6822 72.536 88.4742 74.696 88.4742 77.288C88.4742 79.88 87.6822 82.052 86.0982 83.804ZM75.6582 82.076C76.6902 83.372 78.0942 84.02 79.8702 84.02C81.6462 84.02 83.0502 83.372 84.0822 82.076C85.1142 80.756 85.6302 79.16 85.6302 77.288C85.6302 75.416 85.1142 73.832 84.0822 72.536C83.0502 71.24 81.6462 70.592 79.8702 70.592C78.0942 70.592 76.6902 71.24 75.6582 72.536C74.6262 73.832 74.1102 75.416 74.1102 77.288C74.1102 79.16 74.6262 80.756 75.6582 82.076ZM107.312 86H104.648V74.624C104.648 73.16 104.312 72.128 103.64 71.528C102.968 70.904 101.996 70.592 100.724 70.592C99.7158 70.592 98.7438 70.856 97.8078 71.384C96.8718 71.912 96.1278 72.548 95.5758 73.292V86H92.8758V68.612H95.5758V71.132C96.2478 70.316 97.1478 69.62 98.2758 69.044C99.4038 68.468 100.58 68.18 101.804 68.18C105.476 68.18 107.312 70.052 107.312 73.796V86ZM127.175 86H124.511V74.624C124.511 73.16 124.175 72.128 123.503 71.528C122.831 70.904 121.859 70.592 120.587 70.592C119.579 70.592 118.607 70.856 117.671 71.384C116.735 71.912 115.991 72.548 115.439 73.292V86H112.739V68.612H115.439V71.132C116.111 70.316 117.011 69.62 118.139 69.044C119.267 68.468 120.443 68.18 121.667 68.18C125.339 68.18 127.175 70.052 127.175 73.796V86ZM140.486 86.432C137.87 86.432 135.734 85.592 134.078 83.912C132.422 82.208 131.594 80 131.594 77.288C131.594 74.744 132.41 72.596 134.042 70.844C135.674 69.068 137.714 68.18 140.162 68.18C142.73 68.18 144.758 69.068 146.246 70.844C147.758 72.596 148.514 74.816 148.514 77.504V78.188H134.474C134.594 79.892 135.206 81.32 136.31 82.472C137.438 83.624 138.902 84.2 140.702 84.2C142.862 84.2 144.662 83.456 146.102 81.968L147.398 83.732C145.55 85.532 143.246 86.432 140.486 86.432ZM145.85 76.172C145.826 74.708 145.322 73.388 144.338 72.212C143.354 71.012 141.95 70.412 140.126 70.412C138.398 70.412 137.03 71 136.022 72.176C135.038 73.352 134.51 74.684 134.438 76.172H145.85ZM155.588 86H152.888V61.988H155.588V86Z" fill="#635B9F"/>
</svg>
