<svg width="365" height="122" viewBox="0 0 365 122" fill="none" xmlns="http://www.w3.org/2000/svg" xmlns:xlink="http://www.w3.org/1999/xlink">
<rect width="121" height="122" fill="url(#pattern0)"/>
<path d="M154.672 49.576C161.728 49.576 165.76 45.688 168.064 41.704L162.208 38.872C160.864 41.512 157.984 43.528 154.672 43.528C148.864 43.528 144.64 39.064 144.64 33.016C144.64 26.968 148.864 22.504 154.672 22.504C157.984 22.504 160.864 24.568 162.208 27.16L168.064 24.28C165.808 20.296 161.728 16.456 154.672 16.456C145.072 16.456 137.632 23.176 137.632 33.016C137.632 42.856 145.072 49.576 154.672 49.576ZM187.289 49.576C196.985 49.576 204.041 42.664 204.041 33.016C204.041 23.368 196.985 16.456 187.289 16.456C177.641 16.456 170.585 23.368 170.585 33.016C170.585 42.664 177.641 49.576 187.289 49.576ZM187.289 43.528C181.385 43.528 177.593 38.968 177.593 33.016C177.593 27.016 181.385 22.504 187.289 22.504C193.193 22.504 197.033 27.016 197.033 33.016C197.033 38.968 193.193 43.528 187.289 43.528ZM237.48 49V16.984H230.664V37.096L215.832 16.984H208.824V49H215.64V28.12L230.904 49H237.48ZM272.449 49V16.984H265.633V37.096L250.801 16.984H243.793V49H250.609V28.12L265.873 49H272.449ZM301.418 49V43H285.578V35.752H301.082V29.752H285.578V22.984H301.418V16.984H278.762V49H301.418ZM322.25 49.576C329.306 49.576 333.338 45.688 335.642 41.704L329.786 38.872C328.442 41.512 325.562 43.528 322.25 43.528C316.442 43.528 312.218 39.064 312.218 33.016C312.218 26.968 316.442 22.504 322.25 22.504C325.562 22.504 328.442 24.568 329.786 27.16L335.642 24.28C333.386 20.296 329.306 16.456 322.25 16.456C312.65 16.456 305.21 23.176 305.21 33.016C305.21 42.856 312.65 49.576 322.25 49.576ZM353.955 49V22.984H363.267V16.984H337.731V22.984H347.091V49H353.955Z" fill="#16103F"/>
<path d="M268 34H284.511" stroke="#16103F" stroke-width="7"/>
<path d="M150.796 91H147.808V66.988H157.456C159.784 66.988 161.62 67.684 162.964 69.076C164.308 70.468 164.98 72.184 164.98 74.224C164.98 76.264 164.296 77.98 162.928 79.372C161.584 80.764 159.76 81.46 157.456 81.46H150.796V91ZM157.096 78.796C158.512 78.796 159.664 78.376 160.552 77.536C161.44 76.672 161.884 75.568 161.884 74.224C161.884 72.88 161.44 71.788 160.552 70.948C159.664 70.084 158.512 69.652 157.096 69.652H150.796V78.796H157.096ZM176.256 91.432C173.64 91.432 171.504 90.592 169.848 88.912C168.192 87.208 167.364 85 167.364 82.288C167.364 79.744 168.18 77.596 169.812 75.844C171.444 74.068 173.484 73.18 175.932 73.18C178.5 73.18 180.528 74.068 182.016 75.844C183.528 77.596 184.284 79.816 184.284 82.504V83.188H170.244C170.364 84.892 170.976 86.32 172.08 87.472C173.208 88.624 174.672 89.2 176.472 89.2C178.632 89.2 180.432 88.456 181.872 86.968L183.168 88.732C181.32 90.532 179.016 91.432 176.256 91.432ZM181.62 81.172C181.596 79.708 181.092 78.388 180.108 77.212C179.124 76.012 177.72 75.412 175.896 75.412C174.168 75.412 172.8 76 171.792 77.176C170.808 78.352 170.28 79.684 170.208 81.172H181.62ZM191.357 91H188.657V73.612H191.357V76.384C193.013 74.272 194.945 73.216 197.153 73.216V75.988C196.721 75.94 196.373 75.916 196.109 75.916C195.269 75.916 194.369 76.204 193.409 76.78C192.449 77.332 191.765 77.968 191.357 78.688V91ZM206.084 91.432C203.156 91.432 200.816 90.52 199.064 88.696L200.432 86.752C201.032 87.448 201.848 88.036 202.88 88.516C203.936 88.996 205.028 89.236 206.156 89.236C207.452 89.236 208.46 88.96 209.18 88.408C209.924 87.856 210.296 87.136 210.296 86.248C210.296 85.48 209.924 84.88 209.18 84.448C208.436 83.992 207.536 83.656 206.48 83.44C205.424 83.2 204.368 82.936 203.312 82.648C202.28 82.336 201.392 81.82 200.648 81.1C199.904 80.356 199.532 79.384 199.532 78.184C199.532 76.768 200.108 75.58 201.26 74.62C202.412 73.66 203.984 73.18 205.976 73.18C208.64 73.18 210.788 74.02 212.42 75.7L211.16 77.572C209.936 76.108 208.208 75.376 205.976 75.376C204.8 75.376 203.864 75.64 203.168 76.168C202.472 76.672 202.124 77.32 202.124 78.112C202.124 78.688 202.388 79.168 202.916 79.552C203.444 79.936 204.104 80.212 204.896 80.38C205.712 80.548 206.576 80.764 207.488 81.028C208.424 81.292 209.288 81.592 210.08 81.928C210.896 82.24 211.568 82.768 212.096 83.512C212.624 84.232 212.888 85.12 212.888 86.176C212.888 87.712 212.288 88.972 211.088 89.956C209.912 90.94 208.244 91.432 206.084 91.432ZM231.098 88.804C229.538 90.556 227.462 91.432 224.87 91.432C222.278 91.432 220.19 90.556 218.606 88.804C217.046 87.052 216.266 84.88 216.266 82.288C216.266 79.696 217.046 77.536 218.606 75.808C220.19 74.056 222.278 73.18 224.87 73.18C227.462 73.18 229.538 74.056 231.098 75.808C232.682 77.536 233.474 79.696 233.474 82.288C233.474 84.88 232.682 87.052 231.098 88.804ZM220.658 87.076C221.69 88.372 223.094 89.02 224.87 89.02C226.646 89.02 228.05 88.372 229.082 87.076C230.114 85.756 230.63 84.16 230.63 82.288C230.63 80.416 230.114 78.832 229.082 77.536C228.05 76.24 226.646 75.592 224.87 75.592C223.094 75.592 221.69 76.24 220.658 77.536C219.626 78.832 219.11 80.416 219.11 82.288C219.11 84.16 219.626 85.756 220.658 87.076ZM252.312 91H249.648V79.624C249.648 78.16 249.312 77.128 248.64 76.528C247.968 75.904 246.996 75.592 245.724 75.592C244.716 75.592 243.744 75.856 242.808 76.384C241.872 76.912 241.128 77.548 240.576 78.292V91H237.876V73.612H240.576V76.132C241.248 75.316 242.148 74.62 243.276 74.044C244.404 73.468 245.58 73.18 246.804 73.18C250.476 73.18 252.312 75.052 252.312 78.796V91ZM272.175 91H269.511V79.624C269.511 78.16 269.175 77.128 268.503 76.528C267.831 75.904 266.859 75.592 265.587 75.592C264.579 75.592 263.607 75.856 262.671 76.384C261.735 76.912 260.991 77.548 260.439 78.292V91H257.739V73.612H260.439V76.132C261.111 75.316 262.011 74.62 263.139 74.044C264.267 73.468 265.443 73.18 266.667 73.18C270.339 73.18 272.175 75.052 272.175 78.796V91ZM285.486 91.432C282.87 91.432 280.734 90.592 279.078 88.912C277.422 87.208 276.594 85 276.594 82.288C276.594 79.744 277.41 77.596 279.042 75.844C280.674 74.068 282.714 73.18 285.162 73.18C287.73 73.18 289.758 74.068 291.246 75.844C292.758 77.596 293.514 79.816 293.514 82.504V83.188H279.474C279.594 84.892 280.206 86.32 281.31 87.472C282.438 88.624 283.902 89.2 285.702 89.2C287.862 89.2 289.662 88.456 291.102 86.968L292.398 88.732C290.55 90.532 288.246 91.432 285.486 91.432ZM290.85 81.172C290.826 79.708 290.322 78.388 289.338 77.212C288.354 76.012 286.95 75.412 285.126 75.412C283.398 75.412 282.03 76 281.022 77.176C280.038 78.352 279.51 79.684 279.438 81.172H290.85ZM300.588 91H297.888V66.988H300.588V91Z" fill="#635B9F"/>
<defs>
<pattern id="pattern0" patternContentUnits="objectBoundingBox" width="1" height="1">
<use xlink:href="#image0" transform="translate(-0.156499 -0.102804) scale(0.00521664 0.0046729)"/>
</pattern>

</defs>
</svg>
