<svg width="526" height="516" viewBox="0 0 526 516" fill="none" xmlns="http://www.w3.org/2000/svg">
<path d="M391.345 315C407.957 315 421.473 301.456 421.473 284.808V262.207C421.473 253.917 428.18 247.195 436.454 247.195H511.689H518.5C528.487 13.0056 271 0 271 0L271 66.3819H278.573C311.706 66.3819 338.663 93.3947 338.663 126.598C338.663 159.8 311.706 186.813 278.573 186.813H271V247.195H346.236C354.509 247.195 361.217 253.917 361.217 262.207V284.808C361.217 301.456 374.732 315 391.345 315Z" fill="rgba(0,0,0,0.3)"/>
<path d="M316.129 125.441C316.111 108.828 302.554 95.3263 285.906 95.3434L263.305 95.3666C255.014 95.3751 248.286 88.6747 248.278 80.4014L248.2 5.16564L255 0.347996C20.8006 -9.39847 1.25256 246.109 1.25256 246.109L67.6344 246.041L67.6266 238.467C67.5926 205.334 94.5777 178.35 127.781 178.316C160.983 178.282 188.024 205.21 188.058 238.344L188.066 245.917L248.2 245.917L248.37 170.619C248.362 162.346 255.076 155.631 263.367 155.623L285.968 155.6C302.616 155.583 316.146 142.053 316.129 125.441Z" fill="rgba(0,0,0,0.3)"/>
<path d="M209.273 385.671C209.449 402.283 223.135 415.654 239.782 415.478L262.382 415.239C270.672 415.151 277.464 421.787 277.552 430.06L278.348 505.292L271.594 510.174C505.876 517.682 522.982 262 522.982 262L456.604 262.702L435 264.616C435.351 297.747 430.309 330.647 397.108 330.998C363.907 331.35 336.61 304.681 336.259 271.55L336.179 263.977L275.801 264.616L276.597 339.847C276.685 348.12 270.034 354.898 261.744 354.986L239.144 355.225C222.498 355.401 209.098 369.06 209.273 385.671Z" fill="rgba(0,0,0,0.3)"/>
<path d="M126.416 198.383C109.807 198.712 96.5619 212.521 96.8915 229.165L97.339 251.761C97.5032 260.051 90.9302 266.903 82.6585 267.067L7.43749 268.557L2.00001 268.557C-3.34827 502.898 252.974 510.938 252.974 510.938L251.66 444.569L244.088 444.719C210.961 445.375 183.475 418.901 182.818 385.705C182.161 352.509 208.577 324.967 241.703 324.311L252.974 324.311L252.974 261.849L172.858 265.281C164.587 265.445 157.748 258.857 157.583 250.568L157.136 227.972C156.806 211.328 143.025 198.054 126.416 198.383Z" fill="rgba(0,0,0,0.3)"/>
</svg>
